<?xml version="1.0" encoding="utf-8"?>
<!-- Uploaded to: SVG Repo, www.svgrepo.com, Generator: SVG Repo Mixer Tools -->
<svg width="800px" height="800px" viewBox="0 0 20 20" xmlns="http://www.w3.org/2000/svg">
  <g id="deadlift" transform="translate(-2 -2)">
    <circle id="secondary" fill="#2ca9bc" cx="2" cy="2" r="2" transform="translate(10 3)"/>
    <path id="primary" d="M8,15V10a2,2,0,0,1,2-2h4a2,2,0,0,1,2,2v5" fill="none" stroke="#000000" stroke-linecap="round" stroke-linejoin="round" stroke-width="2"/>
    <path id="primary-2" data-name="primary" d="M14,5a2,2,0,1,1-2-2A2,2,0,0,1,14,5Zm0,9v7m-4,0V14M3,14H20m0-2v4m1-3v2M4,12v4M3,13v2" fill="none" stroke="#000000" stroke-linecap="round" stroke-linejoin="round" stroke-width="2"/>
  </g>
</svg>