<?xml version="1.0" encoding="utf-8"?>

<!-- Uploaded to: SVG Repo, www.svgrepo.com, Generator: SVG Repo Mixer Tools -->
<svg width="800px" height="800px" viewBox="-0.91 0 20.001 20.001" xmlns="http://www.w3.org/2000/svg">
  <g id="dumbbell-2" transform="translate(-2.822 -1.999)">
    <path id="secondary" fill="#2ca9bc"
      d="M18.88,20.06a7.92,7.92,0,0,0,1-5.33A8,8,0,1,0,5.11,20.06,2,2,0,0,0,6.82,21H17.18A2,2,0,0,0,18.88,20.06Z" />
    <path id="primary" d="M7,9.65,6.05,5.43A2,2,0,0,1,8,3h8a2,2,0,0,1,2,2.43L17,9.66" fill="none"
      stroke="#000000" stroke-linecap="round" stroke-linejoin="round" stroke-width="2" />
    <path id="primary-2" data-name="primary"
      d="M18.88,20.06a7.92,7.92,0,0,0,1-5.33A8,8,0,1,0,5.11,20.06,2,2,0,0,0,6.82,21H17.18A2,2,0,0,0,18.88,20.06Z"
      fill="none" stroke="#000000" stroke-linecap="round" stroke-linejoin="round" stroke-width="2" />
  </g>
</svg>